<mxfile host="app.diagrams.net" modified="2024-06-19T14:40:44.415Z" agent="Mozilla/5.0 (Windows NT 10.0; Win64; x64) AppleWebKit/537.36 (KHTML, like Gecko) Chrome/125.0.0.0 Safari/537.36 Edg/125.0.0.0" etag="POeER7COXOiuyCXhNSOy" version="24.0.1" type="github">
  <diagram name="PÃ¡gina-1" id="AUiTUuYdbrOSj9IPVtk-">
    <mxGraphModel dx="746" dy="505" grid="1" gridSize="10" guides="1" tooltips="1" connect="1" arrows="1" fold="1" page="1" pageScale="1" pageWidth="827" pageHeight="1169" math="0" shadow="0">
      <root>
        <mxCell id="0" />
        <mxCell id="1" parent="0" />
        <mxCell id="03jHq_nFoQ9FHIHQzPS4-1" value="" style="shape=hexagon;perimeter=hexagonPerimeter2;whiteSpace=wrap;html=1;fixedSize=1;" vertex="1" parent="1">
          <mxGeometry x="294" y="270" width="120" height="80" as="geometry" />
        </mxCell>
        <mxCell id="03jHq_nFoQ9FHIHQzPS4-2" value="" style="swimlane;startSize=0;" vertex="1" parent="1">
          <mxGeometry x="50" y="50" width="150" height="150" as="geometry" />
        </mxCell>
        <mxCell id="03jHq_nFoQ9FHIHQzPS4-3" value="Source PC" style="text;strokeColor=none;align=center;fillColor=none;html=1;verticalAlign=middle;whiteSpace=wrap;rounded=0;" vertex="1" parent="03jHq_nFoQ9FHIHQzPS4-2">
          <mxGeometry x="45" y="10" width="65" height="30" as="geometry" />
        </mxCell>
        <mxCell id="03jHq_nFoQ9FHIHQzPS4-6" value="JMeter" style="text;strokeColor=none;align=center;fillColor=none;html=1;verticalAlign=middle;whiteSpace=wrap;rounded=0;" vertex="1" parent="03jHq_nFoQ9FHIHQzPS4-2">
          <mxGeometry x="45" y="80" width="60" height="30" as="geometry" />
        </mxCell>
        <mxCell id="03jHq_nFoQ9FHIHQzPS4-5" value="SWITCH" style="text;strokeColor=none;align=center;fillColor=none;html=1;verticalAlign=middle;whiteSpace=wrap;rounded=0;" vertex="1" parent="1">
          <mxGeometry x="324" y="295" width="60" height="30" as="geometry" />
        </mxCell>
        <mxCell id="03jHq_nFoQ9FHIHQzPS4-7" value="" style="swimlane;startSize=0;" vertex="1" parent="1">
          <mxGeometry x="560" y="50" width="150" height="150" as="geometry" />
        </mxCell>
        <mxCell id="03jHq_nFoQ9FHIHQzPS4-8" value="Destination&amp;nbsp; PC" style="text;strokeColor=none;align=center;fillColor=none;html=1;verticalAlign=middle;whiteSpace=wrap;rounded=0;" vertex="1" parent="03jHq_nFoQ9FHIHQzPS4-7">
          <mxGeometry x="20" y="10" width="110" height="30" as="geometry" />
        </mxCell>
        <mxCell id="03jHq_nFoQ9FHIHQzPS4-9" value="WireShark" style="text;strokeColor=none;align=center;fillColor=none;html=1;verticalAlign=middle;whiteSpace=wrap;rounded=0;" vertex="1" parent="03jHq_nFoQ9FHIHQzPS4-7">
          <mxGeometry x="45" y="80" width="60" height="30" as="geometry" />
        </mxCell>
        <mxCell id="03jHq_nFoQ9FHIHQzPS4-11" value="" style="endArrow=classic;startArrow=classic;html=1;rounded=0;entryX=0.5;entryY=1;entryDx=0;entryDy=0;exitX=0;exitY=0.5;exitDx=0;exitDy=0;" edge="1" parent="1" source="03jHq_nFoQ9FHIHQzPS4-1" target="03jHq_nFoQ9FHIHQzPS4-2">
          <mxGeometry width="50" height="50" relative="1" as="geometry">
            <mxPoint x="360" y="290" as="sourcePoint" />
            <mxPoint x="410" y="240" as="targetPoint" />
          </mxGeometry>
        </mxCell>
        <mxCell id="03jHq_nFoQ9FHIHQzPS4-12" value="" style="endArrow=classic;startArrow=classic;html=1;rounded=0;entryX=0.5;entryY=1;entryDx=0;entryDy=0;" edge="1" parent="1" target="03jHq_nFoQ9FHIHQzPS4-7">
          <mxGeometry width="50" height="50" relative="1" as="geometry">
            <mxPoint x="414" y="310" as="sourcePoint" />
            <mxPoint x="464" y="260" as="targetPoint" />
          </mxGeometry>
        </mxCell>
        <mxCell id="03jHq_nFoQ9FHIHQzPS4-13" value="switch_port" style="text;strokeColor=none;align=center;fillColor=none;html=1;verticalAlign=middle;whiteSpace=wrap;rounded=0;" vertex="1" parent="1">
          <mxGeometry x="415" y="300" width="60" height="30" as="geometry" />
        </mxCell>
        <mxCell id="03jHq_nFoQ9FHIHQzPS4-14" value="destination_mac" style="text;strokeColor=none;align=center;fillColor=none;html=1;verticalAlign=middle;whiteSpace=wrap;rounded=0;" vertex="1" parent="1">
          <mxGeometry x="630" y="210" width="60" height="30" as="geometry" />
        </mxCell>
        <mxCell id="03jHq_nFoQ9FHIHQzPS4-16" value="switch_ip" style="text;strokeColor=none;align=center;fillColor=none;html=1;verticalAlign=middle;whiteSpace=wrap;rounded=0;" vertex="1" parent="1">
          <mxGeometry x="240" y="300" width="60" height="30" as="geometry" />
        </mxCell>
      </root>
    </mxGraphModel>
  </diagram>
</mxfile>
